<svg width="32" height="32" xmlns="http://www.w3.org/2000/svg">
<g>
<title>Layer 1</title>
<path id="staff-career-icon-caster" d="M 28.239 29.879 C 27.943 29.646 27.624 29.395 27.305 29.143 C 27.257 29.106 27.211 29.065 27.161 29.031 C 27.034 28.946 26.94 28.853 26.984 28.676 C 26.994 28.636 26.941 28.568 26.902 28.529 C 25.817 27.44 24.731 26.353 23.645 25.265 C 22.194 23.813 20.745 22.361 19.293 20.911 C 19.224 20.842 19.145 20.782 19.062 20.731 C 18.535 20.407 18.006 20.088 17.478 19.766 C 17.427 19.735 17.376 19.7 17.333 19.658 C 16.888 19.215 16.445 18.77 16.001 18.326 C 15.985 18.31 15.971 18.291 15.932 18.244 C 16.059 18.136 16.177 18.036 16.307 17.925 C 16.239 17.855 16.193 17.805 16.145 17.757 C 13.728 15.337 11.311 12.916 8.893 10.498 C 8.822 10.427 8.789 10.357 8.789 10.254 C 8.793 9.147 8.792 8.04 8.792 6.933 C 8.792 6.884 8.792 6.836 8.792 6.755 C 8.849 6.807 8.881 6.832 8.909 6.861 C 9.353 7.305 9.796 7.75 10.242 8.192 C 10.312 8.261 10.336 8.332 10.335 8.427 C 10.331 8.887 10.33 9.346 10.337 9.806 C 10.338 9.872 10.369 9.955 10.415 10.001 C 12.683 12.278 14.955 14.552 17.227 16.825 C 17.246 16.845 17.268 16.863 17.328 16.916 C 17.424 16.784 17.52 16.653 17.62 16.517 C 17.7 16.591 17.734 16.621 17.767 16.653 C 18.184 17.07 18.602 17.487 19.018 17.907 C 19.073 17.963 19.123 18.026 19.164 18.093 C 19.491 18.629 19.815 19.168 20.142 19.703 C 20.183 19.771 20.233 19.834 20.289 19.89 C 22.821 22.427 25.355 24.962 27.886 27.5 C 27.964 27.579 28.036 27.606 28.145 27.583 C 28.202 27.572 28.295 27.588 28.328 27.628 C 28.656 28.031 28.975 28.442 29.29 28.843 C 28.94 29.188 28.595 29.528 28.239 29.879 Z M 15 0.775 C 13.957 0.865 12.913 0.951 11.87 1.042 C 10.961 1.121 10.053 1.205 9.145 1.285 C 8.824 1.313 8.503 1.338 8.155 1.366 C 8.483 2.422 8.805 3.459 9.139 4.532 C 9.085 4.494 9.059 4.481 9.04 4.462 C 7.725 3.147 6.411 1.832 5.098 0.516 C 5.078 0.497 5.064 0.472 5.047 0.45 C 9.513 0.45 13.979 0.45 18.446 0.45 C 18.387 0.463 18.33 0.483 18.271 0.488 C 17.181 0.585 16.091 0.681 15 0.775 Z M 4.617 7.946 C 4.542 7.945 4.449 7.911 4.397 7.859 C 3.869 7.341 3.347 6.816 2.827 6.289 C 2.785 6.247 2.743 6.181 2.743 6.125 C 2.738 5.23 2.739 4.334 2.74 3.439 C 2.74 3.42 2.744 3.402 2.749 3.369 C 2.799 3.366 2.848 3.361 2.898 3.361 C 3.75 3.36 4.602 3.358 5.454 3.364 C 5.527 3.365 5.619 3.403 5.671 3.455 C 6.196 3.97 6.715 4.491 7.231 5.015 C 7.279 5.063 7.322 5.141 7.322 5.205 C 7.328 6.082 7.326 6.959 7.326 7.836 C 7.326 7.867 7.319 7.899 7.314 7.942 C 7.259 7.945 7.209 7.949 7.158 7.949 C 6.311 7.95 5.464 7.952 4.617 7.946 Z M 1.965 2.968 C 1.914 3.021 1.874 3.111 1.873 3.184 C 1.868 4.356 1.868 5.527 1.873 6.699 C 1.874 6.773 1.911 6.865 1.962 6.917 C 2.544 7.508 3.13 8.094 3.721 8.675 C 3.773 8.727 3.866 8.762 3.94 8.763 C 5.189 8.768 6.439 8.766 7.688 8.766 C 7.748 8.766 7.808 8.766 7.876 8.766 C 7.876 9.222 7.876 9.661 7.876 10.115 C 7.826 10.117 7.776 10.122 7.727 10.122 C 6.276 10.122 4.825 10.121 3.374 10.124 C 3.276 10.124 3.21 10.092 3.142 10.025 C 2.3 9.178 1.456 8.333 0.61 7.49 C 0.541 7.421 0.515 7.352 0.515 7.255 C 0.518 5.713 0.516 4.171 0.52 2.629 C 0.52 2.561 0.543 2.475 0.587 2.43 C 1.036 1.971 1.491 1.519 1.945 1.065 C 1.958 1.052 1.973 1.042 1.993 1.026 C 2.308 1.346 2.617 1.659 2.935 1.982 C 2.916 2.003 2.888 2.038 2.856 2.07 C 2.558 2.368 2.257 2.664 1.965 2.968 Z M 4.35 13.304 C 3.315 12.981 2.281 12.659 1.226 12.331 C 1.211 12.455 1.194 12.564 1.184 12.673 C 1.095 13.719 1.008 14.765 0.917 15.81 C 0.838 16.716 0.754 17.621 0.675 18.526 C 0.585 19.572 0.498 20.617 0.409 21.663 C 0.385 21.943 0.361 22.223 0.335 22.503 C 0.331 22.544 0.312 22.582 0.3 22.622 C 0.3 18.157 0.3 13.693 0.3 9.229 C 0.33 9.249 0.364 9.265 0.389 9.29 C 1.697 10.598 3.004 11.907 4.312 13.216 C 4.33 13.234 4.347 13.255 4.35 13.304 Z" />
</g>
</svg>
