<svg width="32" height="32" xmlns="http://www.w3.org/2000/svg">
    <g>
        <title>Layer 1</title>
<path id="staff-career-icon-pioneer" d="M29.313,14.190 C29.182,14.196 29.051,14.193 28.920,14.197 C28.497,14.208 28.073,14.219 27.650,14.234 C27.367,14.243 27.083,14.256 26.800,14.272 C26.455,14.291 26.110,14.320 25.766,14.335 C25.518,14.346 25.269,14.337 25.021,14.344 C24.814,14.351 24.606,14.358 24.402,14.386 C24.334,14.396 24.259,14.460 24.216,14.520 C24.106,14.675 24.010,14.842 23.910,15.004 C23.876,15.060 23.846,15.119 23.814,15.177 C23.726,15.342 23.554,15.391 23.404,15.471 C23.237,15.560 23.071,15.650 22.902,15.737 C22.701,15.841 22.497,15.938 22.298,16.047 C22.058,16.178 21.823,16.319 21.584,16.453 C21.489,16.506 21.391,16.553 21.293,16.602 C21.065,16.714 20.834,16.819 20.610,16.938 C20.407,17.046 20.214,17.173 20.013,17.284 C19.866,17.365 19.712,17.433 19.562,17.511 C19.404,17.593 19.248,17.679 19.092,17.765 C18.943,17.848 18.800,17.938 18.649,18.016 C18.495,18.097 18.332,18.160 18.179,18.243 C17.976,18.352 17.783,18.481 17.578,18.587 C17.339,18.711 17.089,18.814 16.849,18.936 C16.708,19.008 16.581,19.104 16.442,19.179 C16.316,19.246 16.178,19.292 16.052,19.360 C15.940,19.421 15.823,19.487 15.737,19.577 C15.695,19.622 15.716,19.729 15.714,19.808 C15.703,20.184 15.703,20.561 15.680,20.936 C15.660,21.263 15.600,21.587 15.583,21.914 C15.564,22.280 15.597,22.650 15.565,23.014 C15.525,23.462 15.582,23.914 15.478,24.361 C15.425,24.590 15.470,24.840 15.461,25.080 C15.450,25.385 15.424,25.689 15.416,25.994 C15.406,26.352 15.411,26.710 15.405,27.068 C15.403,27.230 15.391,27.392 15.383,27.562 C15.315,27.562 15.253,27.562 15.168,27.562 C15.168,27.293 15.171,27.030 15.167,26.767 C15.161,26.362 15.147,25.958 15.140,25.554 C15.135,25.271 15.135,24.988 15.132,24.705 C15.132,24.696 15.133,24.687 15.132,24.678 C15.097,24.419 15.046,24.162 15.032,23.902 C15.007,23.454 15.006,23.004 14.991,22.556 C14.986,22.399 14.963,22.243 14.958,22.086 C14.951,21.896 14.958,21.705 14.952,21.514 C14.949,21.423 14.928,21.332 14.918,21.241 C14.905,21.134 14.887,21.028 14.884,20.921 C14.879,20.690 14.880,20.458 14.883,20.226 C14.885,20.076 14.821,20.024 14.686,20.091 C14.560,20.154 14.446,20.239 14.323,20.309 C14.204,20.376 14.081,20.437 13.959,20.499 C13.782,20.590 13.605,20.681 13.427,20.770 C13.216,20.875 13.002,20.973 12.794,21.085 C12.663,21.155 12.546,21.252 12.414,21.322 C12.273,21.398 12.120,21.451 11.978,21.526 C11.746,21.650 11.520,21.787 11.289,21.912 C11.057,22.037 10.820,22.152 10.588,22.274 C10.494,22.324 10.405,22.382 10.313,22.436 C10.294,22.428 10.275,22.419 10.255,22.410 C10.271,22.344 10.274,22.271 10.304,22.212 C10.369,22.085 10.448,21.964 10.523,21.841 C10.564,21.774 10.610,21.711 10.649,21.643 C10.717,21.524 10.778,21.401 10.846,21.281 C10.967,21.070 11.093,20.861 11.212,20.648 C11.331,20.437 11.440,20.220 11.560,20.009 C11.634,19.878 11.724,19.755 11.802,19.625 C11.844,19.556 11.869,19.475 11.914,19.408 C12.029,19.234 12.208,19.151 12.393,19.066 C12.627,18.959 12.842,18.810 13.070,18.688 C13.274,18.580 13.487,18.490 13.691,18.382 C13.832,18.308 13.964,18.217 14.102,18.137 C14.208,18.076 14.315,18.018 14.423,17.963 C14.690,17.826 14.959,17.693 15.226,17.557 C15.566,17.384 15.908,17.213 16.245,17.035 C16.459,16.921 16.664,16.790 16.877,16.675 C17.087,16.561 17.305,16.460 17.517,16.349 C17.715,16.245 17.910,16.135 18.107,16.030 C18.188,15.987 18.277,15.959 18.356,15.913 C18.481,15.842 18.600,15.759 18.725,15.687 C18.838,15.622 18.957,15.565 19.072,15.502 C19.241,15.409 19.436,15.367 19.586,15.229 C19.658,15.163 19.775,15.149 19.865,15.100 C20.127,14.958 20.385,14.808 20.647,14.667 C20.749,14.611 20.853,14.554 20.964,14.524 C21.105,14.485 21.161,14.394 21.163,14.264 C21.164,14.130 21.157,13.995 21.140,13.863 C21.117,13.680 21.156,13.622 21.333,13.636 C21.522,13.651 21.709,13.688 21.898,13.706 C22.063,13.723 22.230,13.737 22.396,13.732 C22.468,13.731 22.542,13.686 22.609,13.651 C22.852,13.521 23.091,13.384 23.335,13.255 C23.469,13.184 23.612,13.129 23.748,13.059 C23.870,12.997 23.985,12.921 24.106,12.857 C24.368,12.719 24.635,12.590 24.894,12.448 C25.079,12.347 25.256,12.232 25.442,12.120 C25.532,12.210 25.493,12.283 25.435,12.373 C25.343,12.514 25.270,12.667 25.189,12.815 C25.179,12.835 25.180,12.865 25.165,12.877 C25.028,12.998 24.977,13.168 24.899,13.323 C24.842,13.435 24.750,13.530 24.685,13.638 C24.656,13.687 24.637,13.754 24.645,13.808 C24.649,13.834 24.730,13.872 24.768,13.865 C24.932,13.836 25.087,13.856 25.242,13.906 C25.268,13.914 25.298,13.907 25.326,13.908 C25.902,13.918 26.479,13.922 27.054,13.941 C27.544,13.956 28.034,13.990 28.523,14.012 C28.691,14.020 28.859,14.008 29.026,14.022 C29.135,14.030 29.242,14.066 29.348,14.094 C29.363,14.098 29.384,14.139 29.379,14.144 C29.362,14.164 29.336,14.189 29.313,14.190 ZM28.940,6.203 C28.849,6.355 28.754,6.506 28.667,6.661 C28.559,6.855 28.460,7.055 28.350,7.249 C28.224,7.472 28.088,7.690 27.959,7.912 C27.913,7.990 27.871,8.071 27.829,8.152 C27.761,8.281 27.708,8.422 27.623,8.539 C27.556,8.631 27.455,8.703 27.360,8.771 C27.284,8.825 27.193,8.859 27.109,8.903 C26.841,9.043 26.571,9.179 26.306,9.325 C26.091,9.443 25.884,9.575 25.671,9.696 C25.552,9.764 25.426,9.820 25.305,9.883 C25.074,10.002 24.844,10.124 24.612,10.242 C24.362,10.370 24.109,10.492 23.861,10.622 C23.738,10.687 23.622,10.767 23.501,10.836 C23.394,10.896 23.285,10.951 23.176,11.007 C22.862,11.168 22.547,11.325 22.235,11.490 C21.922,11.656 21.615,11.833 21.302,11.998 C20.977,12.169 20.643,12.326 20.319,12.499 C20.030,12.654 19.749,12.827 19.461,12.985 C19.322,13.062 19.173,13.119 19.032,13.194 C18.893,13.267 18.761,13.353 18.623,13.429 C18.515,13.489 18.403,13.539 18.294,13.597 C18.047,13.730 17.804,13.870 17.554,13.997 C17.325,14.113 17.087,14.210 16.859,14.328 C16.715,14.402 16.585,14.501 16.446,14.584 C16.358,14.637 16.268,14.687 16.176,14.732 C15.954,14.842 15.729,14.944 15.509,15.057 C15.296,15.165 15.087,15.282 14.876,15.395 C14.736,15.470 14.596,15.545 14.457,15.622 C14.308,15.704 14.164,15.794 14.013,15.871 C13.881,15.939 13.741,15.992 13.606,16.056 C13.508,16.103 13.412,16.155 13.317,16.210 C13.105,16.333 12.898,16.463 12.684,16.581 C12.556,16.652 12.416,16.700 12.287,16.769 C12.051,16.895 11.820,17.031 11.583,17.158 C11.447,17.230 11.303,17.290 11.164,17.358 C11.048,17.416 10.934,17.475 10.820,17.537 C10.685,17.611 10.552,17.690 10.417,17.765 C10.170,17.901 9.924,18.038 9.674,18.171 C9.550,18.237 9.419,18.290 9.294,18.355 C9.159,18.424 9.028,18.502 8.893,18.572 C8.569,18.742 8.243,18.910 7.918,19.079 C7.841,19.119 7.766,19.163 7.690,19.206 C7.540,19.292 7.391,19.381 7.239,19.463 C7.125,19.525 7.006,19.575 6.891,19.636 C6.725,19.724 6.562,19.816 6.396,19.906 C6.309,19.953 6.221,20.000 6.133,20.045 C5.922,20.152 5.708,20.254 5.499,20.365 C5.269,20.488 5.044,20.621 4.814,20.745 C4.583,20.870 4.348,20.985 4.116,21.109 C3.900,21.225 3.688,21.352 3.470,21.465 C3.244,21.582 3.011,21.684 2.786,21.801 C2.633,21.881 2.489,21.977 2.339,22.061 C2.240,22.117 2.137,22.164 2.035,22.214 C1.814,22.323 1.589,22.425 1.373,22.542 C1.164,22.655 0.964,22.787 0.758,22.905 C0.633,22.977 0.504,23.039 0.365,23.111 C0.354,23.099 0.330,23.073 0.306,23.047 C0.306,23.000 0.306,22.954 0.306,22.907 C0.344,22.885 0.397,22.873 0.417,22.840 C0.494,22.714 0.556,22.579 0.632,22.453 C0.708,22.326 0.798,22.208 0.874,22.081 C0.929,21.991 0.968,21.891 1.018,21.798 C1.134,21.585 1.247,21.371 1.370,21.161 C1.533,20.881 1.705,20.606 1.872,20.327 C1.925,20.238 1.963,20.139 2.025,20.057 C2.082,19.982 2.153,19.910 2.233,19.861 C2.378,19.773 2.534,19.706 2.683,19.625 C2.893,19.511 3.098,19.389 3.309,19.279 C3.536,19.160 3.770,19.055 3.997,18.936 C4.206,18.826 4.409,18.703 4.618,18.593 C4.764,18.516 4.921,18.456 5.066,18.376 C5.205,18.300 5.332,18.204 5.469,18.125 C5.593,18.053 5.723,17.992 5.851,17.927 C5.995,17.854 6.139,17.784 6.282,17.709 C6.382,17.657 6.478,17.598 6.579,17.546 C6.791,17.438 7.008,17.336 7.218,17.223 C7.458,17.095 7.690,16.953 7.929,16.826 C8.145,16.711 8.368,16.607 8.587,16.497 C8.686,16.447 8.785,16.397 8.882,16.342 C9.107,16.216 9.326,16.081 9.554,15.961 C9.690,15.890 9.839,15.846 9.978,15.781 C10.064,15.742 10.143,15.687 10.225,15.638 C10.351,15.562 10.472,15.477 10.602,15.408 C10.741,15.334 10.888,15.276 11.029,15.206 C11.145,15.149 11.258,15.085 11.372,15.024 C11.617,14.894 11.863,14.766 12.108,14.634 C12.432,14.460 12.756,14.283 13.080,14.108 C13.294,13.994 13.511,13.885 13.724,13.770 C13.953,13.645 14.179,13.512 14.409,13.387 C14.532,13.321 14.661,13.266 14.787,13.203 C14.849,13.172 14.907,13.135 14.969,13.103 C15.108,13.033 15.249,12.966 15.388,12.894 C15.510,12.831 15.629,12.759 15.752,12.696 C15.897,12.623 16.047,12.559 16.190,12.483 C16.307,12.421 16.416,12.343 16.532,12.279 C16.682,12.198 16.837,12.125 16.989,12.047 C17.085,11.999 17.182,11.950 17.275,11.897 C17.491,11.773 17.702,11.639 17.920,11.521 C18.137,11.403 18.364,11.303 18.583,11.188 C18.727,11.113 18.865,11.024 19.007,10.944 C19.100,10.891 19.195,10.841 19.290,10.793 C19.516,10.680 19.744,10.574 19.967,10.456 C20.183,10.342 20.391,10.216 20.605,10.099 C20.740,10.025 20.881,9.962 21.017,9.889 C21.154,9.816 21.287,9.734 21.425,9.661 C21.535,9.602 21.652,9.553 21.763,9.494 C21.937,9.402 22.107,9.302 22.281,9.211 C22.510,9.091 22.742,8.976 22.973,8.860 C23.157,8.768 23.346,8.682 23.526,8.583 C23.663,8.508 23.786,8.411 23.922,8.335 C24.044,8.266 24.178,8.217 24.303,8.153 C24.523,8.040 24.741,7.922 24.961,7.807 C25.094,7.738 25.230,7.674 25.363,7.604 C25.487,7.539 25.609,7.469 25.733,7.403 C25.877,7.326 26.024,7.251 26.168,7.173 C26.301,7.100 26.431,7.024 26.562,6.950 C26.680,6.885 26.798,6.819 26.916,6.756 C27.080,6.668 27.245,6.582 27.409,6.495 C27.518,6.438 27.628,6.383 27.736,6.325 C27.891,6.242 28.044,6.154 28.199,6.072 C28.320,6.008 28.446,5.951 28.567,5.886 C28.748,5.787 28.927,5.684 29.108,5.583 C29.124,5.574 29.143,5.571 29.168,5.563 C29.251,5.656 29.258,5.732 29.167,5.837 C29.074,5.944 29.014,6.079 28.940,6.203 ZM18.870,7.160 C18.809,7.273 18.753,7.389 18.687,7.499 C18.514,7.789 18.330,8.074 18.161,8.367 C18.043,8.570 17.952,8.790 17.830,8.990 C17.712,9.183 17.624,9.391 17.359,9.475 C17.131,9.548 16.939,9.728 16.724,9.846 C16.584,9.923 16.426,9.968 16.282,10.039 C16.153,10.102 16.032,10.183 15.905,10.252 C15.678,10.376 15.451,10.497 15.224,10.620 C15.004,10.739 14.785,10.860 14.565,10.979 C14.450,11.041 14.333,11.099 14.218,11.160 C13.981,11.286 13.745,11.414 13.506,11.538 C13.277,11.657 13.044,11.769 12.815,11.890 C12.598,12.004 12.384,12.124 12.170,12.242 C12.043,12.312 11.917,12.384 11.790,12.453 C11.626,12.543 11.462,12.634 11.296,12.719 C11.165,12.785 11.030,12.839 10.898,12.903 C10.787,12.957 10.678,13.015 10.570,13.074 C10.431,13.152 10.297,13.237 10.156,13.311 C9.951,13.418 9.739,13.514 9.535,13.624 C9.433,13.678 9.399,13.775 9.403,13.894 C9.410,14.090 9.404,14.287 9.395,14.483 C9.393,14.508 9.341,14.553 9.315,14.551 C9.162,14.541 9.010,14.510 8.856,14.504 C8.551,14.491 8.245,14.477 7.941,14.490 C7.837,14.495 7.736,14.577 7.635,14.626 C7.542,14.672 7.447,14.714 7.358,14.767 C7.220,14.851 7.090,14.949 6.950,15.029 C6.837,15.094 6.712,15.138 6.594,15.196 C6.372,15.307 6.152,15.420 5.932,15.533 C5.792,15.605 5.650,15.675 5.513,15.753 C5.371,15.834 5.237,15.932 5.092,16.010 C4.960,16.081 4.815,16.129 4.683,16.200 C4.544,16.273 4.415,16.364 4.278,16.441 C4.223,16.471 4.131,16.519 4.105,16.498 C4.025,16.433 4.102,16.377 4.143,16.313 C4.229,16.181 4.297,16.038 4.375,15.901 C4.425,15.814 4.477,15.728 4.532,15.644 C4.614,15.521 4.705,15.404 4.783,15.279 C4.827,15.208 4.848,15.122 4.889,15.049 C4.985,14.880 5.091,14.718 5.184,14.548 C5.215,14.490 5.216,14.415 5.241,14.306 C4.848,14.306 4.488,14.317 4.128,14.303 C3.810,14.291 3.493,14.250 3.175,14.227 C3.058,14.219 2.939,14.226 2.822,14.224 C2.280,14.211 1.739,14.197 1.172,14.182 C1.192,14.144 1.199,14.106 1.221,14.094 C1.389,14.004 1.575,14.019 1.756,14.011 C2.219,13.989 2.683,13.971 3.146,13.954 C3.581,13.939 4.015,13.925 4.449,13.914 C4.756,13.907 5.064,13.906 5.372,13.902 C5.423,13.901 5.637,13.715 5.663,13.665 C5.753,13.492 5.855,13.324 6.035,13.232 C6.365,13.064 6.702,12.910 7.031,12.739 C7.239,12.630 7.436,12.498 7.640,12.382 C7.754,12.317 7.876,12.266 7.992,12.206 C8.304,12.042 8.613,11.876 8.925,11.713 C9.070,11.637 9.221,11.570 9.366,11.493 C9.516,11.412 9.661,11.321 9.811,11.238 C9.922,11.176 10.037,11.119 10.150,11.060 C10.214,11.026 10.279,10.990 10.344,10.958 C10.483,10.890 10.623,10.825 10.761,10.756 C10.871,10.701 10.978,10.639 11.087,10.581 C11.245,10.497 11.405,10.416 11.561,10.329 C11.788,10.202 12.011,10.068 12.237,9.940 C12.329,9.888 12.426,9.844 12.521,9.798 C12.662,9.730 12.805,9.668 12.944,9.597 C13.078,9.529 13.208,9.455 13.339,9.382 C13.434,9.329 13.527,9.271 13.623,9.221 C13.842,9.107 14.064,9.001 14.281,8.884 C14.451,8.792 14.619,8.696 14.778,8.587 C14.824,8.555 14.854,8.472 14.857,8.411 C14.876,7.996 14.883,7.581 14.901,7.166 C14.906,7.038 14.945,6.911 14.952,6.783 C14.971,6.434 14.983,6.085 14.994,5.736 C15.009,5.279 15.014,4.821 15.034,4.364 C15.041,4.194 15.086,4.027 15.099,3.858 C15.115,3.660 15.113,3.461 15.120,3.263 C15.132,2.889 15.147,2.514 15.156,2.139 C15.166,1.752 15.171,1.364 15.175,0.977 C15.177,0.878 15.171,0.779 15.168,0.680 C15.243,0.680 15.319,0.680 15.394,0.680 C15.392,0.878 15.388,1.076 15.391,1.273 C15.400,1.817 15.413,2.361 15.423,2.904 C15.427,3.109 15.401,3.320 15.435,3.519 C15.524,4.030 15.540,4.544 15.552,5.060 C15.560,5.361 15.561,5.662 15.572,5.963 C15.577,6.114 15.599,6.264 15.609,6.414 C15.636,6.800 15.662,7.186 15.686,7.571 C15.692,7.654 15.689,7.738 15.697,7.821 C15.703,7.895 15.719,7.969 15.730,8.043 C15.818,8.027 15.913,8.027 15.991,7.989 C16.149,7.913 16.296,7.815 16.450,7.728 C16.580,7.655 16.712,7.586 16.843,7.515 C17.048,7.405 17.255,7.298 17.459,7.187 C17.697,7.057 17.933,6.923 18.171,6.794 C18.276,6.737 18.385,6.689 18.491,6.633 C18.673,6.536 18.851,6.430 19.038,6.340 C19.121,6.300 19.220,6.292 19.311,6.269 C19.324,6.287 19.337,6.306 19.349,6.324 C19.251,6.486 19.149,6.647 19.054,6.810 C18.988,6.924 18.931,7.043 18.870,7.160 Z" />
    </g>
</svg>
