<svg width="32" height="32" xmlns="http://www.w3.org/2000/svg">
    <g>
        <title>Layer 1</title>
<path id="staff-career-icon-support" d="M15.170,0.031 C19.186,0.031 23.201,0.031 27.216,0.031 C27.224,0.091 27.240,0.151 27.240,0.211 C27.241,8.844 27.241,17.476 27.244,26.108 C27.244,26.244 27.207,26.279 27.073,26.279 C23.226,26.275 19.380,26.276 15.534,26.276 C15.484,26.276 15.434,26.276 15.376,26.276 C15.376,25.464 15.376,24.670 15.376,23.877 C15.399,23.871 15.412,23.864 15.425,23.864 C16.499,23.863 17.573,23.862 18.647,23.863 C18.677,23.863 18.707,23.879 18.737,23.889 C18.793,23.909 18.849,23.948 18.905,23.948 C20.856,23.952 22.807,23.950 24.759,23.954 C24.890,23.954 24.923,23.914 24.923,23.786 C24.921,16.701 24.921,9.616 24.923,2.531 C24.923,2.405 24.893,2.365 24.760,2.365 C22.536,2.370 20.313,2.368 18.090,2.368 C18.040,2.368 17.990,2.368 17.940,2.368 C17.940,3.047 17.940,3.705 17.940,4.378 C19.535,4.378 21.118,4.378 22.702,4.378 C22.702,9.525 22.702,14.656 22.702,19.787 C22.684,19.801 22.667,19.815 22.650,19.829 C22.625,19.784 22.609,19.730 22.574,19.695 C18.469,15.590 14.363,11.485 10.256,7.382 C10.177,7.303 10.142,7.225 10.142,7.112 C10.145,5.593 10.144,4.074 10.144,2.555 C10.144,2.496 10.138,2.438 10.133,2.368 C10.072,2.368 10.026,2.368 9.980,2.368 C9.389,2.368 8.798,2.373 8.207,2.365 C8.068,2.363 8.037,2.406 8.037,2.539 C8.042,3.997 8.040,5.456 8.045,6.914 C8.046,7.049 8.010,7.086 7.874,7.086 C6.420,7.081 4.966,7.083 3.512,7.083 C3.326,7.083 3.326,7.083 3.326,7.264 C3.326,12.740 3.326,18.217 3.326,23.694 C3.326,23.744 3.326,23.794 3.326,23.850 C3.374,23.855 3.405,23.861 3.437,23.861 C4.811,23.862 6.185,23.861 7.560,23.864 C7.664,23.864 7.684,23.825 7.684,23.732 C7.681,23.151 7.680,22.569 7.685,21.988 C7.686,21.879 7.647,21.855 7.546,21.856 C6.936,21.860 6.327,21.858 5.717,21.858 C5.662,21.858 5.607,21.858 5.538,21.858 C5.538,21.792 5.538,21.746 5.538,21.700 C5.538,17.579 5.539,13.457 5.536,9.336 C5.535,9.209 5.573,9.179 5.695,9.179 C6.497,9.184 7.299,9.180 8.101,9.186 C8.175,9.187 8.266,9.226 8.319,9.278 C12.484,13.436 16.646,17.597 20.808,21.759 C20.831,21.783 20.851,21.811 20.882,21.849 C19.035,21.849 17.208,21.849 15.367,21.849 C15.367,21.785 15.367,21.730 15.367,21.675 C15.367,20.428 15.368,19.180 15.364,17.933 C15.364,17.862 15.339,17.770 15.291,17.722 C14.662,17.084 14.028,16.452 13.394,15.819 C13.373,15.798 13.346,15.784 13.298,15.749 C13.298,19.270 13.298,22.765 13.298,26.276 C13.221,26.276 13.162,26.276 13.102,26.276 C9.143,26.276 5.184,26.276 1.226,26.276 C0.978,26.276 1.005,26.298 1.005,26.059 C1.005,20.522 1.005,14.984 1.005,9.446 C1.005,6.375 1.005,3.304 1.006,0.233 C1.006,0.165 1.030,0.098 1.042,0.031 C5.048,0.031 9.054,0.031 13.060,0.031 C13.070,0.099 13.090,0.167 13.090,0.235 C13.092,3.048 13.091,5.861 13.095,8.674 C13.095,8.754 13.123,8.856 13.176,8.910 C13.801,9.545 14.432,10.173 15.063,10.803 C15.083,10.823 15.110,10.837 15.150,10.865 C15.150,10.787 15.150,10.731 15.150,10.675 C15.150,7.192 15.150,3.709 15.151,0.225 C15.151,0.161 15.164,0.096 15.170,0.031 ZM3.326,2.373 C3.326,2.434 3.326,2.480 3.326,2.525 C3.326,3.660 3.328,4.794 3.322,5.929 C3.322,6.066 3.369,6.089 3.491,6.089 C4.621,6.085 5.751,6.086 6.882,6.086 C6.931,6.086 6.981,6.086 7.032,6.086 C7.032,4.837 7.032,3.608 7.032,2.373 C5.797,2.373 4.574,2.373 3.326,2.373 Z" />
    </g>
</svg>
