<svg width="32" height="32" xmlns="http://www.w3.org/2000/svg">
    <g>
        <title>Layer 1</title>
<path id="staff-career-icon-sniper" d="M28.348,1.103 C28.349,4.101 28.349,7.099 28.349,10.097 C28.349,10.137 28.346,10.177 28.317,10.219 C28.277,9.979 28.237,9.739 28.198,9.498 C28.056,8.630 27.913,7.763 27.772,6.895 C27.634,6.045 27.498,5.195 27.359,4.346 C27.254,3.699 27.144,3.054 27.041,2.407 C27.028,2.330 27.002,2.300 26.921,2.287 C26.040,2.144 25.160,1.998 24.280,1.851 C23.496,1.721 22.713,1.590 21.929,1.460 C21.040,1.313 20.150,1.168 19.260,1.021 C19.210,1.013 19.163,0.992 19.114,0.977 C22.194,0.977 25.274,0.977 28.354,0.977 C28.352,1.019 28.348,1.061 28.348,1.103 ZM8.297,8.072 C8.411,10.714 8.525,13.356 8.639,16.008 C8.397,16.008 8.175,16.008 7.929,16.008 C8.043,13.358 8.157,10.714 8.271,8.070 C8.280,8.070 8.288,8.071 8.297,8.072 ZM21.971,4.296 C22.328,4.641 22.679,4.992 23.027,5.346 C23.097,5.416 23.154,5.429 23.247,5.392 C23.708,5.212 24.172,5.039 24.636,4.863 C24.675,4.849 24.714,4.837 24.780,4.814 C24.758,4.884 24.745,4.935 24.727,4.984 C24.562,5.432 24.400,5.881 24.229,6.326 C24.184,6.443 24.198,6.518 24.290,6.607 C24.640,6.945 24.984,7.290 25.324,7.639 C25.386,7.702 25.437,7.790 25.458,7.875 C25.983,9.975 26.503,12.077 27.024,14.179 C27.262,15.142 27.500,16.104 27.734,17.068 C27.746,17.116 27.741,17.182 27.716,17.223 C26.825,18.653 25.931,20.082 25.036,21.511 C25.024,21.530 25.008,21.546 24.977,21.583 C24.772,21.374 24.573,21.171 24.374,20.969 C24.187,20.782 24.187,20.783 24.328,20.555 C24.486,20.302 24.643,20.049 24.816,19.770 C24.733,19.770 24.679,19.770 24.625,19.770 C20.647,19.787 16.669,19.811 12.691,19.812 C12.255,19.812 11.949,19.928 11.648,20.249 C10.901,21.044 10.114,21.801 9.343,22.573 C9.314,22.602 9.288,22.633 9.269,22.696 C10.126,22.628 10.984,22.561 11.863,22.491 C11.853,22.624 11.846,22.743 11.837,22.861 C11.796,23.384 11.752,23.907 11.716,24.430 C11.707,24.556 11.662,24.606 11.534,24.616 C10.881,24.663 10.228,24.717 9.575,24.769 C8.862,24.826 8.148,24.884 7.435,24.941 C7.076,24.970 6.717,25.003 6.358,25.023 C6.223,25.030 6.123,25.069 6.026,25.167 C4.665,26.535 3.301,27.899 1.939,29.265 C1.900,29.304 1.876,29.358 1.822,29.440 C1.269,28.877 0.756,28.353 0.242,27.829 C0.242,27.820 0.242,27.811 0.242,27.801 C0.282,27.771 0.326,27.746 0.361,27.711 C1.741,26.330 3.121,24.948 4.498,23.563 C4.551,23.509 4.595,23.422 4.601,23.346 C4.671,22.520 4.731,21.693 4.797,20.867 C4.863,20.036 4.933,19.205 5.001,18.375 C5.010,18.267 5.018,18.160 5.021,18.052 C5.023,17.960 5.064,17.920 5.157,17.913 C5.656,17.876 6.155,17.836 6.654,17.797 C6.807,17.785 6.960,17.773 7.140,17.759 C7.071,18.632 7.004,19.492 6.933,20.386 C6.989,20.339 7.020,20.315 7.048,20.287 C7.942,19.393 8.834,18.498 9.730,17.605 C9.803,17.533 9.831,17.459 9.833,17.359 C9.893,14.670 9.956,11.982 10.018,9.293 C10.053,7.794 10.088,6.295 10.122,4.796 C10.123,4.751 10.122,4.706 10.122,4.629 C9.685,4.902 9.271,5.161 8.866,5.414 C8.598,5.144 8.338,4.883 8.071,4.614 C8.098,4.594 8.130,4.568 8.164,4.547 C9.563,3.670 10.963,2.792 12.365,1.919 C12.419,1.885 12.506,1.871 12.569,1.887 C13.971,2.230 15.372,2.578 16.773,2.926 C18.423,3.335 20.074,3.743 21.723,4.157 C21.812,4.179 21.905,4.232 21.971,4.296 ZM20.794,10.707 C20.300,11.193 19.813,11.686 19.323,12.176 C19.290,12.209 19.256,12.239 19.191,12.299 C19.108,12.190 19.028,12.086 18.946,11.978 C18.884,12.036 18.849,12.067 18.817,12.099 C18.175,12.742 17.533,13.384 16.891,14.027 C15.395,15.525 13.899,17.023 12.401,18.518 C12.349,18.570 12.274,18.624 12.205,18.632 C11.898,18.668 11.590,18.688 11.282,18.711 C11.154,18.721 11.025,18.724 10.889,18.731 C10.889,18.679 10.886,18.642 10.889,18.605 C10.920,18.237 10.958,17.868 10.981,17.499 C10.989,17.377 11.035,17.293 11.119,17.209 C13.252,15.078 15.383,12.944 17.514,10.810 C17.550,10.774 17.583,10.737 17.652,10.664 C17.541,10.584 17.439,10.510 17.301,10.411 C17.381,10.353 17.427,10.328 17.464,10.292 C17.961,9.796 18.458,9.299 18.952,8.800 C19.006,8.746 19.054,8.677 19.083,8.605 C19.429,7.726 19.774,6.846 20.112,5.964 C20.139,5.893 20.139,5.799 20.119,5.725 C20.067,5.541 19.983,5.365 19.939,5.180 C19.899,5.013 19.806,4.953 19.648,4.915 C18.395,4.611 17.144,4.297 15.893,3.987 C14.800,3.715 13.708,3.442 12.614,3.176 C12.543,3.159 12.445,3.177 12.382,3.216 C11.796,3.576 11.215,3.944 10.631,4.307 C10.555,4.354 10.524,4.406 10.522,4.498 C10.475,7.027 10.425,9.557 10.374,12.086 C10.328,14.386 10.280,16.686 10.227,18.986 C10.226,19.055 10.182,19.138 10.132,19.188 C9.046,20.281 7.958,21.372 6.865,22.457 C6.733,22.588 6.738,22.732 6.738,22.895 C6.919,22.896 7.059,22.873 7.192,22.739 C8.261,21.656 9.340,20.583 10.413,19.504 C10.488,19.429 10.563,19.395 10.670,19.395 C11.321,19.399 11.971,19.397 12.622,19.395 C15.023,19.389 17.423,19.382 19.824,19.376 C21.514,19.372 23.203,19.369 24.892,19.371 C25.028,19.371 25.100,19.327 25.170,19.214 C25.569,18.564 25.974,17.917 26.384,17.273 C26.454,17.164 26.463,17.067 26.432,16.946 C26.034,15.354 25.640,13.761 25.245,12.168 C25.059,11.414 24.871,10.661 24.690,9.906 C24.664,9.796 24.611,9.740 24.505,9.708 C24.300,9.646 24.099,9.566 23.893,9.506 C23.824,9.486 23.734,9.484 23.668,9.509 C22.800,9.844 21.934,10.182 21.070,10.526 C20.970,10.566 20.871,10.631 20.794,10.707 ZM21.456,21.385 C18.852,21.497 16.247,21.610 13.633,21.723 C13.633,21.480 13.633,21.258 13.633,21.012 C16.242,21.125 18.848,21.237 21.455,21.349 C21.455,21.361 21.456,21.373 21.456,21.385 Z" />
    </g>
</svg>
